PathFileType	4	(X/Y/Z)	/home/abdul/Desktop/myosuite/custom_workspace/IK/output/S5_12_2.trc
DataRate	CameraRate	NumFrames	NumMarkers	Units	OrigDataRate	OrigDataStartFrame	OrigNumFrames
200.0	200.0	45	3	mm	200.0	524	1396
Frame#	Time	V_Shoulder			V_Elbow			V_Wrist		
		X1	Y1	Z1	X2	Y2	Z2	X3	Y3	Z3

524	2.615	0.8594436579185682	755.535196387978	256.05210618424934	-91.73271685128218	494.1093403253989	138.03103221688488	52.555631227832436	562.4694993677422	317.5207218920335
525	2.62	0.8836448940611675	755.5373636949274	256.06686224794424	-91.46458202225551	493.938983423125	138.32069108922997	52.77280869362648	562.549324540864	317.7573612826785
526	2.625	0.9072290585615351	755.5399563496011	256.0808034194409	-91.19663018492906	493.7708838304132	138.60613800891545	52.98905013253558	562.6282320030887	317.99139625803934
527	2.63	0.9301953266426204	755.5430133883577	256.09394100416483	-90.92893042374904	493.60510444148537	138.887353324453	53.204225985365355	562.7062736226314	318.2228462086938
528	2.635	0.9525435062347579	755.5465729593557	256.1062872352049	-90.66155307582522	493.4417049489998	139.16432094316306	53.418208779339004	562.7835050951884	318.4517293310271
529	2.64	0.9742740332226889	755.550672236238	256.1178552452075	-90.39456957162305	493.2807417823887	139.4370281023611	53.63087337094002	562.8599858377049	318.6780623912002
530	2.645	0.995387965656305	755.5553473347253	256.1286590368423	-90.12805227830857	493.1222680629909	139.70546513089164	53.8420971784805	562.9357788486568	318.9018604997666
531	2.65	1.0158869768984524	755.5606332322374	256.13871345188676	-89.86207434595153	492.96633357559574	139.96962520246342	54.051760403865785	563.0109505359898	319.12313689832274
532	2.655	1.035773347686298	755.5665636906542	256.1480341389793	-89.59670955674379	492.8129847559101	140.2295040822832	54.25974624306953	563.0855705140909	319.34190275950664
533	2.66	1.0550499570862182	755.573171182314	256.1566375200977	-89.33203217734552	492.6622646933622	140.4850998685245	54.465941084878644	563.1597113713653	319.5581670015806
534	2.665	1.0737202723258081	755.5804868193258	256.16454075581925	-89.0681168144264	492.51421314856805	140.73641273019294	54.67023469751466	563.2334484101892	319.7719361187439
535	2.67	1.0917883374904722	755.588540286272	256.17176170942685	-88.80503827342787	492.3688665847011	140.98344464296792	54.87252040278601	563.3068593611831	319.98321402822774
536	2.675	1.1092587610761326	755.5973597763538	256.1783189099251	-88.54287142053226	492.2262582119241	141.22619912460698	55.07269523747567	563.3800240739154	320.192001935121
537	2.68	1.1261367023937574	755.6069719310241	256.1842315140378	-88.281691047788	492.0864180439771	141.46468097149656	55.27066010171894	563.4530241862839	320.39829821576654
538	2.685	1.1424278568258053	755.6174017831416	256.18951926725725	-88.02157174130559	491.94937296594946	141.69889599792037	55.466319894178284	563.5259427749554	320.6020983204518
539	2.69	1.1581384399391532	755.628672703665	256.194202464023	-87.76258775240927	491.8151468122082	141.92885077959383	55.65958363387416	563.5988639893455	320.8033946960006
540	2.695	1.173275170463675	755.6408063518965	256.1983019071085	-87.50481287160116	491.68376045341	142.15455240298172	55.850364568583934	563.6718726717088	321.00217672875
541	2.7	1.1878452521503253	755.6538226292738	256.20183886629616	-87.24832030517133	491.55523189148516	142.3760082218746	56.03858026977447	563.7450539659783	321.198430708267
542	2.705	1.2018563545273044	755.6677396367019	256.20483503642737	-86.99318255426769	491.4295763614516	142.59322562265012	56.22415271408757	563.8184929180397	321.3921398120395
543	2.71	1.215316592577684	755.6825736353994	256.207312494912	-86.73947129622317	491.3068064388989	142.80621179958712	56.40700835145062	563.8922740701523	321.5832841112418
544	2.715	1.2282345053666663	755.6983390112355	256.209293658787	-86.48725726792627	491.1869321519655	143.01497354153406	56.587078159938216	563.9664810522386	321.7718405975505
545	2.72	1.240619033651445	755.7150482425169	256.21080124141463	-86.23661015101257	491.06996109663385	143.21951703116017	56.76429768756303	564.0411961727491	321.95778323085915
546	2.725	1.2524794965113764	755.7327118711831	256.2118582089119	-85.98759845865136	490.95589855417006	143.4198476579365	56.93860708122561	564.1165000117817	322.1410830076169
547	2.73	1.2638255670409362	755.7513384773583	256.2124877364045	-85.74028942370143	490.84474760954834	143.6159698459076	57.109951103103676	564.192471019081	322.3217080493913
548	2.735	1.2746672471525289	755.7709346572029	256.2127131641996	-85.49474888801412	490.7365092697247	143.80788689722274	57.27827913481037	564.2691851194791	322.4996237111419
549	2.74	1.2850148415407832	755.7915050040043	256.2125579539724	-85.25104119266977	490.6311825806514	143.99560085229626	57.443545169698574	564.3467153282517	322.6747927085738
550	2.745	1.294878930864401	755.8130520924415	256.2120456450612	-85.0092290689451	490.528764741961	144.17911236736677	57.60570779373356	564.4251313787688	322.8471752638354
551	2.75	1.3042703442059036	755.8355764659537	256.21119981096695	-84.76937352982434	490.42925121829546	144.35842061011755	57.764730155399796	564.5044993646947	323.01672926871953
552	2.755	1.31320013087377	755.8590766271415	256.2100440161508	-84.53153376188564	490.3326358463031	144.5335231739126	57.92057992514812	564.5848813988739	323.18341046443436
553	2.76	1.3216795316154257	755.8835490311253	256.2086017732256	-84.29576701741601	490.2389109363869	144.7044160110924	58.073229244927184	564.6663352908914	323.3471726369196
554	2.765	1.3297199493132743	755.9089880817887	256.2068965006333	-84.06212850663252	490.1480673683483	144.87109338565915	58.22265466837819	564.7489142451482	323.50796782660416
555	2.77	1.3373329192395194	755.9353861308286	256.2049514809012	-83.83067128991505	490.06009468014076	145.0335478455698	58.368837092302854	564.8326665811283	323.66574655142836
556	2.775	1.3445300789488368	755.9627334795363	256.2027898195667	-83.6014461699857	489.9749811490189	145.19177021474022	58.51176168004247	564.9176354773679	323.82045804188806
557	2.78	1.3513231378910093	755.9910183832366	256.2004344048609	-83.37450158400176	489.8927138644457	145.34574960475015	58.651417777429984	565.0038587404576	323.9720504868032
558	2.785	1.3577238468284183	756.0202270583105	256.19790786823484	-83.14988349556307	489.813278792203	145.4954734461275	58.787798821996816	565.091368600231	324.1204712884661
559	2.79	1.3637439671458116	756.0503436917287	256.1952325458148	-82.9276352866696	489.73666082923137	145.6409275389782	58.920902246131746	565.1801915321055	324.2656673257864
560	2.795	1.3693952401419967	756.0813504530288	256.19243044086653	-82.70779764970138	489.6628438488129	145.78209612262071	59.05072937490074	565.2703481073581	324.40758522401984
561	2.8	1.3746893563949711	756.1132275086696	256.1895231873464	-82.49040847953076	489.5918107357961	145.9189619637777	59.17728531924325	565.361852871929	324.54617162964655
562	2.805	1.379637925293655	756.1459530386995	256.1865320146152	-82.2755027659137	489.5235434116529	146.05150646277596	59.30057886526308	565.4547142541585	324.68137348895516
563	2.81	1.3842524448306321	756.1795032556803	256.1834777133842	-82.06311248634569	489.45802284924247	146.1797097771063	59.42062236032919	565.5489345016833	324.81313832888407
564	2.815	1.3885442717512344	756.2138524258125	256.18038060296254	-81.85326649960471	489.3952290772504	146.3035509616011	59.53743159669514	565.6445096475334	324.9414145386751
565	2.82	1.392524592154911	756.2489728922124	256.17726049986726	-81.64599044024175	489.3351411743547	146.42300812439888	59.65102569333379	565.7414295052924	325.0661516509106
566	2.825	1.3962043926450605	756.2848351002943	256.174136687857	-81.44130661431494	489.2777372532581	146.5380585977787	59.761426976667764	565.8396776930241	325.187300620525
567	2.83	1.3995944321233944	756.3214076252216	256.17102788944317	-81.23923389669959	489.22299443481313	146.6486791228705	59.868660860855144	565.9392316854905	325.30481410040727
568	2.835	1.4027052143244478	756.3586572013874	256.1679522389277	-81.03978763033926	489.17088881254256	146.75484604717258	59.972755728264744	566.0400628940456	325.41864671225056
